<svg xmlns="http://www.w3.org/2000/svg" viewBox="0 0 64 64" width="64" height="64">
  <g id="anchor-0000" data-kind="cubic_path">
    <path d="M 40 15 C 40.888 17.961 41.246 21.488 43.2 24 C 44.416 25.563 46.298 26.349 48 27.2 C 52.51 29.455 53 33.576 53 38 C 43.719 46.352 37.853 47 26 47 C 21.231 47 18.752 47.426 14 46 C 8.933 37.556 15.446 36.181 17.6 29 C 18.767 25.112 17.808 20.975 19 17 C 22.861 13.525 29.567 9.77 35 11.4 C 36.99 11.997 38.503 13.653 40 15 Z" fill="#003366" />
    <rect x="12.122" y="11.008" width="40.878" height="36.05" fill="none" stroke="#ff00ff" stroke-width="1" stroke-dasharray="2 2" />
    <text x="12.122" y="9.008" font-size="4" fill="#ff00ff">anchor-0000:cubic_path:0.205</text>
  </g>
</svg>