<svg xmlns="http://www.w3.org/2000/svg" viewBox="0 0 64 64" width="64" height="64">
  <g id="anchor-0000" data-kind="cubic_path">
    <path d="M 37 12.4 C 39.821 14.288 40.559 20.831 43.2 24 C 45.642 26.93 50.701 28.218 52 31 C 53.096 33.347 52.934 36.877 51.8 39 C 50.643 41.165 47.524 42.492 45 43.8 C 42.296 45.201 39.692 46.435 36 47 C 30.523 47.838 18.659 48.593 15 46.2 C 12.905 44.83 11.976 42.354 12 40 C 12.032 36.849 16.367 32.851 17.6 29 C 18.823 25.181 17.387 19.919 19.4 17 C 21.318 14.219 25.842 12.261 29 11.6 C 31.698 11.035 34.794 10.924 37 12.4 Z" fill="#003366" />
    <rect x="12" y="11.6" width="40" height="35.4" fill="none" stroke="#ff00ff" stroke-width="1" stroke-dasharray="2 2" />
    <text x="12" y="9.6" font-size="4" fill="#ff00ff">anchor-0000:cubic_path:0.275</text>
  </g>
</svg>