<svg xmlns="http://www.w3.org/2000/svg" viewBox="0 0 64 64" width="64" height="64">
  <path d="M 30 11 C 32.333 10.667 35.167 10.667 37 12 C 38.833 13.333 39.5 16.667 41 19 C 42.5 21.333 44.167 24 46 26 C 47.833 28 50.833 29 52 31 C 53.167 33 54 36 53 38 C 52 40 48.333 41.667 46 43 C 43.667 44.333 41.5 45.333 39 46 C 36.5 46.667 33.5 46.833 31 47 C 28.5 47.167 26.333 47 24 47 C 21.667 47 19 47.833 17 47 C 15 46.167 12.5 44 12 42 C 11.5 40 13 37.333 14 35 C 15 32.667 17.333 30.5 18 28 C 18.667 25.5 17.167 22.333 18 20 C 18.833 17.667 21 15.5 23 14 C 25 12.5 27.667 11.333 30 11 Z" fill="#003366" />
</svg>