<svg xmlns="http://www.w3.org/2000/svg" viewBox="0 0 64 64" width="64" height="64">
  <g id="anchor-0000" data-kind="cubic_path">
    <path d="M 53 36 C 48.849 38.491 45.728 39 41 39 C 38.029 41.311 36.124 45.638 33 47.2 C 26.777 50.312 26 40.607 26 37 C 23.169 35.018 20.287 33.986 17 33 C 12.063 25.947 17.621 22.914 24 21 C 26.483 16.862 28.515 9.497 34 8.4 C 41.93 6.814 42.351 17.946 46 22 C 48.247 24.497 51.642 25.884 53.2 29 C 54.403 31.407 53.723 33.591 53 36 Z" fill="#003366" />
    <rect x="15.114" y="8.257" width="38.742" height="39.518" fill="none" stroke="#ff00ff" stroke-width="1" stroke-dasharray="2 2" />
    <text x="15.114" y="6.257" font-size="4" fill="#ff00ff">anchor-0000:cubic_path:0.205</text>
  </g>
</svg>