<svg xmlns="http://www.w3.org/2000/svg" viewBox="0 0 64 64" width="64" height="64">
  <path d="M 34 8 C 36 7.667 38.333 9.333 40 11 C 41.667 12.667 42.5 15.667 44 18 C 45.5 20.333 47.333 22.833 49 25 C 50.667 27.167 53.5 29 54 31 C 54.5 33 53.5 35.667 52 37 C 50.5 38.333 47.333 38.333 45 39 C 42.667 39.667 40 39.667 38 41 C 36 42.333 34.833 46.333 33 47 C 31.167 47.667 28.167 46.5 27 45 C 25.833 43.5 27.167 39.833 26 38 C 24.833 36.167 21.833 35.333 20 34 C 18.167 32.667 15.333 31.833 15 30 C 14.667 28.167 16.333 24.667 18 23 C 19.667 21.333 23.333 21.667 25 20 C 26.667 18.333 26.5 15 28 13 C 29.5 11 32 8.333 34 8 Z" fill="#003366" />
</svg>