<svg xmlns="http://www.w3.org/2000/svg" viewBox="0 0 64 64" width="64" height="64">
  <path d="M 36 8.4 C 42.571 9.057 42.495 18.106 46 22 C 48.247 24.497 51.642 25.884 53.2 29 C 54.12 30.84 54.218 33.168 53.2 35 C 50.24 40.328 44.219 37.456 40 39.8 C 36.414 41.792 35.225 48.761 30 47.6 C 25.228 46.539 27.035 39.943 25.4 37 C 23.218 33.072 16.672 34.906 15.2 30 C 14.564 27.881 15.383 25.637 17 24.2 C 19.27 22.182 22.587 22.101 24.6 19.8 C 28.122 15.774 28.899 7.69 36 8.4 Z" fill="#003366" />
</svg>