<svg xmlns="http://www.w3.org/2000/svg" viewBox="0 0 64 64" width="64" height="64">
  <path d="M 36 8.4 C 37.594 8.552 39.087 9.569 40.4 11 C 42.334 13.108 43.15 18.248 45.2 21 C 47.038 23.468 50.308 24.927 51.8 27 C 52.967 28.622 54.09 30.34 54 32 C 53.905 33.74 52.705 35.931 51 37.2 C 48.661 38.941 42.91 38.056 40 39.8 C 37.393 41.362 35.987 45.392 34 46.6 C 32.661 47.415 31.148 47.895 30 47.6 C 28.895 47.316 27.97 46.272 27.2 45 C 26.01 43.035 26.554 38.272 24.8 36.2 C 23.098 34.189 18.621 34.257 17 32.6 C 15.762 31.334 14.946 29.448 15 28 C 15.05 26.66 15.879 25.367 17 24.2 C 18.604 22.53 22.448 21.892 24.6 19.8 C 27.013 17.454 28.114 12.25 30.4 10.4 C 32.077 9.043 34.281 8.236 36 8.4 Z" fill="#003366" />
</svg>