<svg xmlns="http://www.w3.org/2000/svg" viewBox="0 0 64 64" width="64" height="64">
  <path d="M 50 49.4 C 46.492 51.856 42.285 53.572 38 54 C 35.368 54.263 32.564 53.313 30 52.8 C 26.62 52.124 23.111 51.355 20 49.8 C 8.442 44.021 0.033 29.952 8.4 18 C 18.96 2.914 42.619 9.466 53 21 C 60.534 29.372 59.254 42.922 50 49.4 Z M 24 22 C 30.883 22 31.85 31.745 25 33.8 C 17.709 35.987 15.22 22 24 22 Z M 41 30 C 46.923 30 47.287 38.214 42 39.8 C 35.529 41.741 33.794 30 41 30 Z" fill="#003366" fill-rule="evenodd" />
</svg>