<svg xmlns="http://www.w3.org/2000/svg" viewBox="0 0 64 64" width="64" height="64">
  <g id="anchor-0000" data-kind="cubic_path">
    <path d="M 35 12.6 C 36.867 13.296 38.836 14.603 41 16.4 C 44.233 19.084 49.873 25.3 51.8 28 C 52.692 29.25 53.108 29.831 53.4 31 C 53.754 32.418 53.923 34.468 53.4 36 C 52.848 37.616 51.72 39.082 50 40.4 C 47.371 42.415 41.149 43.254 38 45.4 C 35.435 47.148 34.282 50.232 32 51.6 C 29.904 52.856 27.15 54.009 25 53.6 C 22.809 53.183 20.703 51.579 19 49 C 15.853 44.235 12.016 29.085 12.6 24 C 12.873 21.624 13.926 20.443 15.2 19 C 16.624 17.387 18.704 16.102 21 15 C 23.795 13.658 28.401 12.186 31 12 C 32.618 11.884 33.591 12.075 35 12.6 Z" fill="#003366" />
    <rect x="12.6" y="12" width="40.8" height="41.6" fill="none" stroke="#ff00ff" stroke-width="1" stroke-dasharray="2 2" />
    <text x="12.6" y="10" font-size="4" fill="#ff00ff">anchor-0000:cubic_path:0.38</text>
  </g>
</svg>