<svg xmlns="http://www.w3.org/2000/svg" viewBox="0 0 64 64" width="64" height="64">
  <g id="anchor-0000" data-kind="cubic_path">
    <path d="M 54 32 C 52.757 44.426 44.933 40.008 38 45.4 C 36.372 46.666 35.433 48.567 34 50 C 31.534 52.466 28.244 53.351 25 54 C 19.52 50.164 17.694 47.938 17 41 C 16.863 39.626 17.008 38.361 16.6 37 C 16.067 35.223 15.02 33.64 14.2 32 C 13.113 29.825 12.665 27.215 12 25 C 13.007 22.986 13.68 20.71 15.2 19 C 19.003 14.722 30.563 10.281 36 13 C 39.881 14.94 42.183 17.87 45 21 C 48.337 24.707 51.738 27.476 54 32 Z" fill="#003366" />
    <rect x="12" y="12.189" width="42" height="41.811" fill="none" stroke="#ff00ff" stroke-width="1" stroke-dasharray="2 2" />
    <text x="12" y="10.189" font-size="4" fill="#ff00ff">anchor-0000:cubic_path:0.275</text>
  </g>
</svg>