<svg xmlns="http://www.w3.org/2000/svg" viewBox="0 0 64 64" width="64" height="64">
  <path d="M 29 12 C 31.333 11.833 33.667 12 36 13 C 38.333 14 40.833 16 43 18 C 45.167 20 47.167 22.667 49 25 C 50.833 27.333 53.667 29.5 54 32 C 54.333 34.5 52.667 38.167 51 40 C 49.333 41.833 46.333 42 44 43 C 41.667 44 39.167 44.5 37 46 C 34.833 47.5 33.167 50.833 31 52 C 28.833 53.167 26 53.667 24 53 C 22 52.333 20.167 50 19 48 C 17.833 46 17.667 43.5 17 41 C 16.333 38.5 15.833 35.5 15 33 C 14.167 30.5 12 28.333 12 26 C 12 23.667 13.333 21 15 19 C 16.667 17 19.667 15.167 22 14 C 24.333 12.833 26.667 12.167 29 12 Z" fill="#003366" />
</svg>