<svg xmlns="http://www.w3.org/2000/svg" viewBox="0 0 64 64" width="64" height="64">
  <g id="anchor-0000" data-kind="cubic_path">
    <path d="M 28 14 C 29.667 13 32 13.5 34 14 C 36 14.5 38 15.333 40 17 C 42 18.667 44.167 21.833 46 24 C 47.833 26.167 49.833 28 51 30 C 52.167 32 53 34 53 36 C 53 38 52.167 40.333 51 42 C 49.833 43.667 48 45.167 46 46 C 44 46.833 41.167 47 39 47 C 36.833 47 35 46.167 33 46 C 31 45.833 29 46.167 27 46 C 25 45.833 22.5 46.167 21 45 C 19.5 43.833 18.333 41 18 39 C 17.667 37 18.167 35.167 19 33 C 19.833 30.833 22.167 28.167 23 26 C 23.833 23.833 23.167 22 24 20 C 24.833 18 26.333 15 28 14 Z" fill="#003366" />
    <rect x="18" y="14" width="35" height="33" fill="none" stroke="#ff00ff" stroke-width="1" stroke-dasharray="2 2" />
    <text x="18" y="12" font-size="4" fill="#ff00ff">anchor-0000:cubic_path:0.45</text>
  </g>
</svg>