<svg xmlns="http://www.w3.org/2000/svg" viewBox="0 0 64 64" width="64" height="64">
  <path d="M 49 44.6 C 47.87 45.526 46.515 46.189 45 46.6 C 43.244 47.077 41.478 47.056 39 47 C 34.946 46.908 26.356 46.351 23 45.2 C 21.282 44.611 20.233 44.032 19.4 43 C 18.565 41.966 18.161 40.351 18 39 C 17.843 37.684 17.946 36.512 18.4 35 C 19.08 32.734 21.63 29.738 22.6 27 C 23.522 24.398 23.273 21.098 24.2 19 C 24.905 17.404 25.682 16.039 27 15.2 C 28.501 14.245 31.11 13.86 33 14 C 34.762 14.131 36.141 14.541 38 15.8 C 41.513 18.179 48.197 25.88 50.6 30 C 52.1 32.572 52.961 34.986 53 37 C 53.029 38.513 52.441 39.757 51.8 41 C 51.13 42.299 50.141 43.665 49 44.6 Z" fill="#003366" />
</svg>