<svg xmlns="http://www.w3.org/2000/svg" viewBox="0 0 64 64" width="64" height="64">
  <g id="anchor-0000" data-kind="quad">
    <polygon points="8,14 56,14 56,50 8,50" fill="#003366" />
    <rect x="8" y="14" width="48" height="36" fill="none" stroke="#ff00ff" stroke-width="1" stroke-dasharray="2 2" />
    <text x="8" y="12" font-size="4" fill="#ff00ff">anchor-0000:quad:0.917871</text>
  </g>
  <g id="anchor-0001" data-kind="stroke_path">
    <path d="M 11 21.5 C 12.167 21.389 15.667 20.278 18 20.833 C 20.333 21.389 22.833 23.167 25 24.833 C 27.167 26.5 28.833 28.556 31 30.833 C 33.167 33.111 35.667 36.5 38 38.5 C 40.333 40.5 42.667 42.25 45 42.833 C 47.333 43.417 50.833 42.139 52 42" fill="none" stroke="#ffffff" stroke-width="2.473" stroke-linecap="round" stroke-linejoin="round" />
    <rect x="9.764" y="19.597" width="43.473" height="24.473" fill="none" stroke="#ff00ff" stroke-width="1" stroke-dasharray="2 2" />
    <text x="9.764" y="17.597" font-size="4" fill="#ff00ff">anchor-0001:stroke_path:0.94718</text>
  </g>
</svg>