<svg xmlns="http://www.w3.org/2000/svg" viewBox="0 0 64 64" width="64" height="64">
  <g id="anchor-0000" data-kind="cubic_path">
    <path d="M 17.8 15.2 C 18.598 15.589 14.542 23.793 15 28 C 15.479 32.398 17.981 37.594 21 41 C 23.996 44.38 29.407 47.213 33 48.4 C 35.536 49.238 37.576 49.279 40 49 C 42.75 48.683 48.306 45.751 48.6 46.2 C 48.752 46.432 47.788 47.333 47 48 C 45.54 49.236 42.655 51.401 40 52.4 C 37.061 53.506 33.019 54.181 30 54 C 27.441 53.847 25.244 53.082 23 52 C 20.561 50.824 17.911 49.027 16 47 C 14.127 45.013 12.599 42.655 11.6 40 C 10.494 37.061 9.737 33.215 10 30 C 10.254 26.889 11.579 23.561 13 21 C 14.266 18.718 17.195 14.905 17.8 15.2 Z" fill="#003366" />
    <rect x="10" y="15.2" width="38.6" height="38.8" fill="none" stroke="#ff00ff" stroke-width="1" stroke-dasharray="2 2" />
    <text x="10" y="13.2" font-size="4" fill="#ff00ff">anchor-0000:cubic_path:0.38</text>
  </g>
</svg>