<svg xmlns="http://www.w3.org/2000/svg" viewBox="0 0 64 64" width="64" height="64">
  <path d="M 19 14 C 19.5 14 15.667 19.5 15 22 C 14.333 24.5 14.5 26.5 15 29 C 15.5 31.5 16.333 34.333 18 37 C 19.667 39.667 22.667 43.167 25 45 C 27.333 46.833 29.5 47.333 32 48 C 34.5 48.667 37.333 49.167 40 49 C 42.667 48.833 47.333 46.833 48 47 C 48.667 47.167 45.833 49 44 50 C 42.167 51 39.5 52.333 37 53 C 34.5 53.667 31.667 54.333 29 54 C 26.333 53.667 23.5 52.5 21 51 C 18.5 49.5 15.667 47.333 14 45 C 12.333 42.667 11.667 39.667 11 37 C 10.333 34.333 9.833 31.5 10 29 C 10.167 26.5 10.5 24.5 12 22 C 13.5 19.5 18.5 14 19 14 Z" fill="#003366" />
</svg>