<svg xmlns="http://www.w3.org/2000/svg" viewBox="0 0 64 64" width="64" height="64">
  <path d="M 4 19 C 5.5 18.5 10 16.5 13 16 C 16 15.5 18.833 15.972 22 16 C 25.167 16.028 28.833 16.167 32 16.167 C 35.167 16.167 38 16.028 41 16 C 44 15.972 47 15.5 50 16 C 53 16.5 57.5 18.5 59 19" fill="none" stroke="#003366" stroke-width="2.984" stroke-linecap="round" stroke-linejoin="round" />
  <path d="M 4 47 C 5.5 46.5 10 44.5 13 44 C 16 43.5 18.833 43.972 22 44 C 25.167 44.028 28.833 44.167 32 44.167 C 35.167 44.167 38 44.028 41 44 C 44 43.972 47 43.5 50 44 C 53 44.5 57.5 46.5 59 47" fill="none" stroke="#003366" stroke-width="2.984" stroke-linecap="round" stroke-linejoin="round" />
</svg>