<svg xmlns="http://www.w3.org/2000/svg" viewBox="0 0 64 64" width="64" height="64">
  <g id="anchor-0000" data-kind="cubic_path">
    <path d="M 50 49.2 C 47.139 50.63 44.01 50.897 41 51.8 C 33.213 54.136 20.124 57.941 13 52.4 C 9.669 49.809 7.417 45.166 7 41 C 6.483 35.83 11.585 18.831 14 14 C 15.652 10.695 18.042 7.774 21.2 5.8 C 31.412 -0.582 40.764 9.071 47 16 C 49.762 19.069 53.219 21.599 55.6 25 C 61.295 33.135 59.14 44.63 50 49.2 Z M 30 17 C 36.882 17.688 42.235 24.621 46 30 C 45.312 36.882 38.379 42.235 33 46 C 26.118 45.312 20.765 38.379 17 33 C 17.688 26.118 24.621 20.765 30 17 Z" fill="#003366" fill-rule="evenodd" />
    <rect x="6.983" y="3.727" width="51.727" height="51.514" fill="none" stroke="#ff00ff" stroke-width="1" stroke-dasharray="2 2" />
    <text x="6.983" y="1.727" font-size="4" fill="#ff00ff">anchor-0000:cubic_path:0.17</text>
  </g>
</svg>