<svg xmlns="http://www.w3.org/2000/svg" viewBox="0 0 64 64" width="64" height="64">
  <g id="anchor-0000" data-kind="cubic_path">
    <path d="M 32 7 C 33.756 11.389 35.94 16.174 39 20 C 43.551 20 48.759 20.696 53 19 C 50.399 23.335 47.535 27.775 45 32 C 47.715 35.878 50.24 40.058 53 44 C 48.759 42.304 43.551 43 39 43 C 35.856 46.93 34.556 51.739 32 56 C 29.301 53.301 27.166 46.611 25 43 C 20.177 43 14.492 42.203 10 44 C 13.122 40.097 16.177 36.033 19 32 C 16.021 27.744 13.025 23.321 10 19 C 14.492 20.797 20.177 20 25 20 C 27.537 15.771 29.456 11.24 32 7 Z" fill="#003366" />
    <rect x="10" y="7" width="43" height="49" fill="none" stroke="#ff00ff" stroke-width="1" stroke-dasharray="2 2" />
    <text x="10" y="5" font-size="4" fill="#ff00ff">anchor-0000:cubic_path:0.31</text>
  </g>
</svg>