<svg xmlns="http://www.w3.org/2000/svg" viewBox="0 0 64 64" width="64" height="64">
  <g id="anchor-0000" data-kind="cubic_path">
    <path d="M 27 6 C 27 11.907 27 18.082 27 24 C 25.28 25.72 23.132 27.56 22.4 30 C 20.336 36.879 26.834 44.717 34 44 C 36.81 43.719 39.147 42.059 41 40 C 46.607 33.77 43.402 26.841 37 23 C 37 17.748 37 12.252 37 7 C 42.515 9.757 47.57 13.617 50.8 19 C 53.626 23.71 56.441 28.406 57 34 C 59.606 60.061 11.708 64.539 7 41 C 6.684 39.422 6.038 37.618 6.2 36 C 6.811 29.893 9.082 24.197 12.2 19 C 16.093 12.512 20.403 9.299 27 6 Z" fill="#003366" />
    <rect x="6.176" y="6" width="50.824" height="50.297" fill="none" stroke="#ff00ff" stroke-width="1" stroke-dasharray="2 2" />
    <text x="6.176" y="4" font-size="4" fill="#ff00ff">anchor-0000:cubic_path:0.17</text>
  </g>
</svg>