<svg xmlns="http://www.w3.org/2000/svg" viewBox="0 0 64 64" width="64" height="64">
  <g id="anchor-0000" data-kind="cubic_path">
    <path d="M 54 22 C 51.775 23.483 49.564 22.744 47 23 C 40.216 23.678 30.226 24.935 27.4 32 C 30.992 40.98 46.807 41 55 41 C 53.176 43.606 51.692 46.516 49 48.4 C 38.156 55.991 20.043 54.643 10.6 45.2 C 6.636 41.236 5.068 36.338 4 31 C 5.476 16.235 14.866 10 29 10 C 35.484 10 42.74 11.509 48 15.6 C 50.277 17.371 52.092 19.853 54 22 Z" fill="#003366" />
    <rect x="4" y="10" width="51" height="43.294" fill="none" stroke="#ff00ff" stroke-width="1" stroke-dasharray="2 2" />
    <text x="4" y="8" font-size="4" fill="#ff00ff">anchor-0000:cubic_path:0.205</text>
  </g>
</svg>