<svg xmlns="http://www.w3.org/2000/svg" viewBox="0 0 64 64" width="64" height="64">
  <path d="M 47 51.8 C 44.616 52.978 40.665 53.293 38 53 C 35.764 52.754 34.355 52.287 32 50.8 C 27.247 47.8 16.805 37.135 13.4 32.6 C 11.718 30.359 10.974 29.039 10.4 27 C 9.797 24.857 9.519 22.27 10 20 C 10.51 17.595 11.86 14.677 13.6 13 C 15.249 11.411 17.626 10.366 20 10 C 22.691 9.585 26.737 10.398 29 11.2 C 30.543 11.747 31.285 12.282 32.6 13.4 C 34.757 15.233 37.266 19.243 40 22 C 42.899 24.923 47.445 27.691 49.6 30.4 C 51.121 32.312 52.026 33.961 52.6 36 C 53.203 38.143 53.234 41.009 53 43 C 52.819 44.537 52.576 45.701 51.8 47 C 50.811 48.656 49.061 50.782 47 51.8 Z" fill="#003366" />
</svg>