<svg xmlns="http://www.w3.org/2000/svg" viewBox="0 0 64 64" width="64" height="64">
  <path d="M 18 10 C 20.333 9.167 23.5 9.5 26 10 C 28.5 10.5 31 11.333 33 13 C 35 14.667 35.833 17.667 38 20 C 40.167 22.333 43.667 24.667 46 27 C 48.333 29.333 50.833 31.667 52 34 C 53.167 36.333 53.167 38.667 53 41 C 52.833 43.333 52.333 46 51 48 C 49.667 50 47.333 52.167 45 53 C 42.667 53.833 39.5 53.5 37 53 C 34.5 52.5 32 51.667 30 50 C 28 48.333 27.167 45.333 25 43 C 22.833 40.667 19.333 38.333 17 36 C 14.667 33.667 12.167 31.333 11 29 C 9.833 26.667 9.833 24.333 10 22 C 10.167 19.667 10.667 17 12 15 C 13.333 13 15.667 10.833 18 10 Z" fill="#003366" />
</svg>