<svg xmlns="http://www.w3.org/2000/svg" viewBox="0 0 64 64" width="64" height="64">
  <g id="anchor-0000" data-kind="cubic_path">
    <path d="M 27 9 C 32.267 9 43.485 18.845 44 24 C 44.324 27.238 41.6 29.076 41.6 32 C 41.6 35.367 45.616 39.162 46 43 C 46.131 44.311 46.053 45.825 45.4 47 C 43.949 49.611 35.006 53.699 32 54 C 26.194 54.581 22.827 46.755 21.4 42 C 20.903 40.343 21.287 38.622 20.8 37 C 19.844 33.813 17 31.588 17 28 C 17 25.39 18.29 22.551 18.8 20 C 19.728 15.358 20.667 9 27 9 Z" fill="#003366" />
    <rect x="17" y="9" width="29.053" height="45" fill="none" stroke="#ff00ff" stroke-width="1" stroke-dasharray="2 2" />
    <text x="17" y="7" font-size="4" fill="#ff00ff">anchor-0000:cubic_path:0.24</text>
  </g>
</svg>