<svg xmlns="http://www.w3.org/2000/svg" viewBox="0 0 64 64" width="64" height="64">
  <g id="anchor-0000" data-kind="cubic_path">
    <path d="M 27 9 C 28.805 9.04 30.954 10.187 33 11.4 C 35.592 12.937 39.122 15.641 41 18 C 42.51 19.897 43.811 21.816 44 24 C 44.21 26.437 41.428 29.287 41.6 32 C 41.787 34.946 44.991 38.386 45.6 41 C 46.034 42.863 46.366 44.552 45.8 46 C 45.213 47.501 43.713 48.65 42 49.8 C 39.567 51.434 34.619 53.673 32 54 C 30.4 54.2 29.119 54.034 28 53.4 C 26.833 52.739 26.209 51.751 25.2 50 C 22.87 45.958 17.479 34.571 17 28 C 16.626 22.869 18.524 17.032 20 14 C 20.844 12.265 21.794 11.236 23 10.4 C 24.147 9.605 25.539 8.968 27 9 Z" fill="#003366" />
    <rect x="17" y="9" width="28.8" height="45" fill="none" stroke="#ff00ff" stroke-width="1" stroke-dasharray="2 2" />
    <text x="17" y="7" font-size="4" fill="#ff00ff">anchor-0000:cubic_path:0.38</text>
  </g>
</svg>