<svg xmlns="http://www.w3.org/2000/svg" viewBox="0 0 64 64" width="64" height="64">
  <g id="anchor-0000" data-kind="cubic_path">
    <path d="M 28 9 C 31.614 10.446 33.993 12.395 37 14.8 C 43.032 19.625 47.141 24.176 41 31 C 43.371 36.926 46 40.366 46 47 C 40.767 51.187 34.656 54 28 54 C 25.327 50.659 22.644 46.146 21.4 42 C 20.903 40.343 21.287 38.622 20.8 37 C 19.844 33.813 17 31.588 17 28 C 17 25.688 18.151 23.245 18.6 21 C 19.913 14.437 19.933 9.807 28 9 Z" fill="#003366" />
    <rect x="17" y="9" width="29" height="45" fill="none" stroke="#ff00ff" stroke-width="1" stroke-dasharray="2 2" />
    <text x="17" y="7" font-size="4" fill="#ff00ff">anchor-0000:cubic_path:0.205</text>
  </g>
</svg>