<svg xmlns="http://www.w3.org/2000/svg" viewBox="0 0 64 64" width="64" height="64">
  <path d="M 25 9 C 27 8.333 29.667 9.833 32 11 C 34.333 12.167 37 14.167 39 16 C 41 17.833 43.333 19.833 44 22 C 44.667 24.167 43.167 26.667 43 29 C 42.833 31.333 42.5 33.667 43 36 C 43.5 38.333 46 40.833 46 43 C 46 45.167 44.5 47.5 43 49 C 41.5 50.5 39.167 51.167 37 52 C 34.833 52.833 32 54.5 30 54 C 28 53.5 26.5 51 25 49 C 23.5 47 21.833 44.333 21 42 C 20.167 39.667 20.667 37.333 20 35 C 19.333 32.667 17.333 30.167 17 28 C 16.667 25.833 17.5 24.167 18 22 C 18.5 19.833 18.833 17.167 20 15 C 21.167 12.833 23 9.667 25 9 Z" fill="#003366" />
</svg>