<svg xmlns="http://www.w3.org/2000/svg" viewBox="0 0 64 64" width="64" height="64">
  <path d="M 49 14 C 49.788 14.667 50.752 15.568 50.6 15.8 C 50.306 16.249 44.75 13.317 42 13 C 39.576 12.721 37.536 12.762 35 13.6 C 31.407 14.787 25.996 17.62 23 21 C 19.981 24.406 17.479 29.602 17 34 C 16.542 38.207 20.598 46.411 19.8 46.8 C 19.195 47.095 16.266 43.282 15 41 C 13.579 38.439 12.254 35.111 12 32 C 11.737 28.785 12.494 24.939 13.6 22 C 14.599 19.345 16.306 16.898 18 15 C 19.491 13.33 20.973 12.103 23 11 C 25.467 9.658 28.889 8.254 32 8 C 35.215 7.737 39.061 8.494 42 9.6 C 44.655 10.599 47.54 12.764 49 14 Z" fill="#003366" />
</svg>