<svg xmlns="http://www.w3.org/2000/svg" viewBox="0 0 64 64" width="64" height="64">
  <path d="M 30 8 C 32.667 7.333 35.5 7.5 38 8 C 40.5 8.5 42.833 9.667 45 11 C 47.167 12.333 51.333 15.667 51 16 C 50.667 16.333 45.5 13.5 43 13 C 40.5 12.5 38.5 12.333 36 13 C 33.5 13.667 30.5 15.167 28 17 C 25.5 18.833 22.833 21.5 21 24 C 19.167 26.5 17.667 29.5 17 32 C 16.333 34.5 16.5 36.5 17 39 C 17.5 41.5 20.333 46.667 20 47 C 19.667 47.333 16.333 43.167 15 41 C 13.667 38.833 12.5 36.5 12 34 C 11.5 31.5 11.333 28.667 12 26 C 12.667 23.333 14.333 20.333 16 18 C 17.667 15.667 19.667 13.667 22 12 C 24.333 10.333 27.333 8.667 30 8 Z" fill="#003366" />
</svg>