<svg xmlns="http://www.w3.org/2000/svg" viewBox="0 0 64 64" width="64" height="64">
  <path d="M 44 51.4 C 39.657 52.703 35.406 52.559 31 53 C 29.317 53.168 27.683 53.832 26 54 C 21.558 54.444 15.109 52.109 12 49 C 9.087 46.087 7.407 42.074 7 38 C 6.259 30.589 16.439 10.28 23 7 C 35.892 0.554 44.037 11.624 50.6 21 C 58.761 32.658 60.793 46.362 44 51.4 Z M 30 16 C 36.883 16 37.85 25.745 31 27.8 C 23.709 29.987 21.22 16 30 16 Z M 34 36 C 40.883 36 41.85 45.745 35 47.8 C 27.709 49.987 25.22 36 34 36 Z" fill="#003366" fill-rule="evenodd" />
</svg>