<svg xmlns="http://www.w3.org/2000/svg" viewBox="0 0 64 64" width="64" height="64">
  <path d="M 17 16 C 17.5 16 13.667 21.5 13 24 C 12.333 26.5 12.5 28.5 13 31 C 13.5 33.5 14.333 36.333 16 39 C 17.667 41.667 20.667 45.167 23 47 C 25.333 48.833 27.5 49.333 30 50 C 32.5 50.667 35.333 51.167 38 51 C 40.667 50.833 45.333 48.833 46 49 C 46.667 49.167 43.833 51 42 52 C 40.167 53 37.5 54.333 35 55 C 32.5 55.667 29.667 56.333 27 56 C 24.333 55.667 21.5 54.5 19 53 C 16.5 51.5 13.667 49.333 12 47 C 10.333 44.667 9.667 41.667 9 39 C 8.333 36.333 7.833 33.5 8 31 C 8.167 28.5 8.5 26.5 10 24 C 11.5 21.5 16.5 16 17 16 Z" fill="#003366" />
</svg>