<svg xmlns="http://www.w3.org/2000/svg" viewBox="0 0 64 64" width="64" height="64">
  <path d="M 15.8 17.2 C 16.598 17.589 12.542 25.793 13 30 C 13.479 34.398 15.981 39.594 19 43 C 21.996 46.38 27.407 49.213 31 50.4 C 33.536 51.238 35.576 51.279 38 51 C 40.75 50.683 46.306 47.751 46.6 48.2 C 46.752 48.432 45.788 49.333 45 50 C 43.54 51.236 40.655 53.401 38 54.4 C 35.061 55.506 31.019 56.181 28 56 C 25.441 55.847 23.244 55.082 21 54 C 18.561 52.824 15.911 51.027 14 49 C 12.127 47.013 10.599 44.655 9.6 42 C 8.494 39.061 7.737 35.215 8 32 C 8.254 28.889 9.579 25.561 11 23 C 12.266 20.718 15.195 16.905 15.8 17.2 Z" fill="#003366" />
</svg>