<svg xmlns="http://www.w3.org/2000/svg" viewBox="0 0 64 64" width="64" height="64">
  <g id="anchor-0000" data-kind="cubic_path">
    <path d="M 50 47 C 45.818 49.509 22.82 52.846 18 51.4 C 15.527 50.658 13.266 48.704 11.6 46.8 C 10.077 45.059 9 41.312 9 39 C 9 35.823 15.5 18.399 17.2 15 C 18.511 12.377 20.608 10.075 23 8.4 C 26.995 5.604 33.167 6.9 37 9.2 C 40.814 11.489 43.089 15.765 46 19 C 51.426 25.028 58.672 32.455 54.4 41 C 53.46 42.88 51.881 45.872 50 47 Z M 32 24 C 42.074 24 42.074 40 32 40 C 21.926 40 21.926 24 32 24 Z" fill="#003366" fill-rule="evenodd" />
    <rect x="9" y="6.813" width="46.653" height="44.938" fill="none" stroke="#ff00ff" stroke-width="1" stroke-dasharray="2 2" />
    <text x="9" y="4.813" font-size="4" fill="#ff00ff">anchor-0000:cubic_path:0.205</text>
  </g>
</svg>