<svg xmlns="http://www.w3.org/2000/svg" viewBox="0 0 64 64" width="64" height="64">
  <g id="anchor-0000" data-kind="cubic_path">
    <path d="M 55.6 41 C 53.419 43.804 49.992 44.304 47 45.8 C 42.798 47.901 35.71 53.541 31.4 48 C 29.523 45.587 30.824 38.868 28.8 38 C 26.625 37.068 23.461 38.138 21 37.4 C 13.636 35.191 4.935 28.53 9.2 20 C 12.464 13.472 20.448 14.424 26 17.2 C 28.514 18.457 30.529 20.564 33 21.8 C 35.351 22.976 37.584 21.675 40 22.4 C 44.174 23.652 47.157 27.279 51 29.2 C 55.203 31.302 59.103 36.496 55.6 41 Z" fill="#003366" />
    <rect x="8.082" y="15.089" width="48.869" height="35.27" fill="none" stroke="#ff00ff" stroke-width="1" stroke-dasharray="2 2" />
    <text x="8.082" y="13.089" font-size="4" fill="#ff00ff">anchor-0000:cubic_path:0.24</text>
  </g>
</svg>