<svg xmlns="http://www.w3.org/2000/svg" viewBox="0 0 64 64" width="64" height="64">
  <g id="anchor-0000" data-kind="cubic_path">
    <path d="M 55.6 41 C 53.253 43.804 44.295 48.802 40 49.8 C 37.313 50.424 34.646 50.273 33 49.4 C 31.714 48.718 31.003 47.458 30.4 46 C 29.594 44.049 30.871 39.853 29.4 38.4 C 27.855 36.874 23.855 38.38 21 37.4 C 17.546 36.214 12.525 33.502 10.4 31 C 8.865 29.192 8.14 26.93 8 25 C 7.875 23.278 8.396 21.48 9.2 20 C 10.033 18.467 11.422 16.838 13 16 C 14.657 15.12 16.941 14.856 19 15 C 21.262 15.158 23.658 16.122 26 17.2 C 28.656 18.423 31.22 21.212 34 22.2 C 36.57 23.113 39.138 22.075 42 23.2 C 46.127 24.822 53.466 30.142 55.6 33 C 56.673 34.437 57 35.667 57 37 C 57 38.333 56.742 39.636 55.6 41 Z" fill="#003366" />
    <rect x="8" y="15" width="49" height="34.8" fill="none" stroke="#ff00ff" stroke-width="1" stroke-dasharray="2 2" />
    <text x="8" y="13" font-size="4" fill="#ff00ff">anchor-0000:cubic_path:0.45</text>
  </g>
</svg>