<svg xmlns="http://www.w3.org/2000/svg" viewBox="0 0 64 64" width="64" height="64">
  <path d="M 15 15 C 17.333 14.167 20.5 15.167 23 16 C 25.5 16.833 27.5 19 30 20 C 32.5 21 35.5 21.167 38 22 C 40.5 22.833 42.5 23.667 45 25 C 47.5 26.333 51 27.833 53 30 C 55 32.167 57.167 35.667 57 38 C 56.833 40.333 54.167 42.333 52 44 C 49.833 45.667 46.667 47 44 48 C 41.333 49 38.333 50.333 36 50 C 33.667 49.667 31 48 30 46 C 29 44 31.333 39.333 30 38 C 28.667 36.667 24.5 38.5 22 38 C 19.5 37.5 17.167 36.667 15 35 C 12.833 33.333 10 30.333 9 28 C 8 25.667 8 23.167 9 21 C 10 18.833 12.667 15.833 15 15 Z" fill="#003366" />
</svg>