<svg xmlns="http://www.w3.org/2000/svg" viewBox="0 0 64 64" width="64" height="64">
  <g id="anchor-0000" data-kind="cubic_path">
    <path d="M 18 10 C 20.167 9 22.667 9.333 25 10 C 27.333 10.667 30 12.167 32 14 C 34 15.833 35.167 19 37 21 C 38.833 23 40.667 24 43 26 C 45.333 28 49.333 30.667 51 33 C 52.667 35.333 53 37.667 53 40 C 53 42.333 52.333 44.833 51 47 C 49.667 49.167 47.167 52 45 53 C 42.833 54 40.333 53.667 38 53 C 35.667 52.333 33 50.833 31 49 C 29 47.167 28 44.167 26 42 C 24 39.833 21.333 38 19 36 C 16.667 34 13.5 32.167 12 30 C 10.5 27.833 10 25.333 10 23 C 10 20.667 10.667 18.167 12 16 C 13.333 13.833 15.833 11 18 10 Z" fill="#003366" />
    <rect x="10" y="10" width="43" height="43" fill="none" stroke="#ff00ff" stroke-width="1" stroke-dasharray="2 2" />
    <text x="10" y="8" font-size="4" fill="#ff00ff">anchor-0000:cubic_path:0.45</text>
  </g>
</svg>