<svg xmlns="http://www.w3.org/2000/svg" viewBox="0 0 64 64" width="64" height="64">
  <path d="M 47 51.4 C 44.969 52.753 42.234 53.075 40 53 C 37.913 52.93 36.089 52.557 34 51.2 C 30.572 48.973 26.69 41.766 23 38.4 C 20.015 35.677 16.183 34.67 14 32 C 11.938 29.479 10.349 25.745 10 23 C 9.726 20.843 10.25 18.693 11 17 C 11.669 15.489 12.685 14.299 14 13.2 C 15.558 11.898 17.731 10.334 20 10 C 22.636 9.612 26.126 10.119 29 11.8 C 32.898 14.079 36.31 21.234 40 24.6 C 42.985 27.323 46.875 28.645 49 31 C 50.68 32.861 51.742 34.928 52.4 37 C 53.015 38.937 53.549 40.939 53 43 C 52.282 45.696 49.435 49.778 47 51.4 Z" fill="#003366" />
</svg>