<svg xmlns="http://www.w3.org/2000/svg" viewBox="0 0 64 64" width="64" height="64">
  <g id="anchor-0000" data-kind="cubic_path">
    <path d="M 34 9.8 C 35.72 10.144 37.708 11.251 39 12.4 C 41.454 14.582 42.816 17.573 45 20 C 47.509 22.788 50.499 25.597 52.2 29 C 53.168 30.936 53.631 33.845 53.2 36 C 52.083 41.584 46.778 43.6 43 47 C 38.649 50.916 33.528 56.506 27 55.2 C 25.28 54.856 23.292 53.749 22 52.6 C 19.546 50.418 18.184 47.427 16 45 C 13.491 42.212 10.501 39.403 8.8 36 C 7.832 34.064 7.369 31.155 7.8 29 C 8.917 23.416 14.222 21.4 18 18 C 22.351 14.084 27.472 8.494 34 9.8 Z M 27 26.4 C 35.42 23.874 39.604 37.019 31 39.6 C 22.58 42.126 18.396 28.981 27 26.4 Z" fill="#003366" fill-rule="evenodd" />
    <rect x="7.638" y="9.612" width="45.723" height="45.775" fill="none" stroke="#ff00ff" stroke-width="1" stroke-dasharray="2 2" />
    <text x="7.638" y="7.612" font-size="4" fill="#ff00ff">anchor-0000:cubic_path:0.31</text>
  </g>
</svg>