<svg xmlns="http://www.w3.org/2000/svg" viewBox="0 0 64 64" width="64" height="64">
  <g id="anchor-0000" data-kind="cubic_path">
    <path d="M 32 5 C 34.005 11.682 35.999 18.331 38 25 C 44.116 28.058 51.412 30.024 58 32 C 56.271 32 54.618 32.915 53 33.4 C 48.41 34.777 43.654 36.069 39 37 C 35.184 43.361 34.13 51.898 32 59 C 29.876 51.92 27.12 45.066 25 38 C 19.564 35.282 11.069 33.214 5 32 C 11.539 30.692 17.509 27.298 24 26 C 27.707 19.821 29.93 11.901 32 5 Z" fill="#003366" />
    <rect x="5" y="5" width="53" height="54" fill="none" stroke="#ff00ff" stroke-width="1" stroke-dasharray="2 2" />
    <text x="5" y="3" font-size="4" fill="#ff00ff">anchor-0000:cubic_path:0.205</text>
  </g>
</svg>