<svg xmlns="http://www.w3.org/2000/svg" viewBox="0 0 64 64" width="64" height="64">
  <g id="anchor-0000" data-kind="cubic_path">
    <path d="M 50 22.8 C 51.159 23.664 52.333 24.777 53 26 C 53.647 27.186 54.011 28.534 54 30 C 53.986 31.8 53.801 33.832 52.4 36 C 49.736 40.124 39.678 47.444 35 50.2 C 32.29 51.797 30.249 52.967 28 53 C 25.929 53.03 23.528 52.111 22 50.8 C 20.444 49.465 19.304 47.413 18.8 45 C 18.092 41.612 20.248 35.919 20 32 C 19.791 28.707 17.859 25.384 18 23 C 18.095 21.384 18.67 20.062 19.4 19 C 20.055 18.048 20.965 17.3 22 16.8 C 23.132 16.253 24.426 15.855 26 16 C 28.427 16.223 31.791 18.799 35 19.6 C 38.428 20.456 43.293 20.003 46 20.8 C 47.721 21.306 48.829 21.927 50 22.8 Z" fill="#003366" />
    <rect x="18" y="16" width="36" height="37" fill="none" stroke="#ff00ff" stroke-width="1" stroke-dasharray="2 2" />
    <text x="18" y="14" font-size="4" fill="#ff00ff">anchor-0000:cubic_path:0.415</text>
  </g>
</svg>