<svg xmlns="http://www.w3.org/2000/svg" viewBox="0 0 64 64" width="64" height="64">
  <g id="anchor-0000" data-kind="cubic_path">
    <path d="M 23 16 C 25 15.167 27.667 16.333 30 17 C 32.333 17.667 34.833 19.5 37 20 C 39.167 20.5 40.833 19.5 43 20 C 45.167 20.5 48.167 21.5 50 23 C 51.833 24.5 53.5 27 54 29 C 54.5 31 54.167 33 53 35 C 51.833 37 49.167 39.167 47 41 C 44.833 42.833 42.333 44.167 40 46 C 37.667 47.833 35.333 50.833 33 52 C 30.667 53.167 28.167 53.5 26 53 C 23.833 52.5 21.333 50.833 20 49 C 18.667 47.167 18 44.333 18 42 C 18 39.667 19.833 37.167 20 35 C 20.167 32.833 19.333 31.167 19 29 C 18.667 26.833 17.333 24.167 18 22 C 18.667 19.833 21 16.833 23 16 Z" fill="#003366" />
    <rect x="18" y="16" width="36" height="37" fill="none" stroke="#ff00ff" stroke-width="1" stroke-dasharray="2 2" />
    <text x="18" y="14" font-size="4" fill="#ff00ff">anchor-0000:cubic_path:0.45</text>
  </g>
</svg>