<svg xmlns="http://www.w3.org/2000/svg" viewBox="0 0 64 64" width="64" height="64">
  <g id="anchor-0000" data-kind="cubic_path">
    <path d="M 33 5 C 39.738 5 43.547 11.434 47.2 16 C 51.094 20.867 58 26.096 58 33 C 58 35.32 56.696 38.148 55.4 40 C 53.016 43.406 49.036 45.268 46 48 C 43.469 50.278 40.827 53.115 38 55 C 35.829 56.447 32.687 58 30 58 C 23.262 58 19.453 51.566 15.8 47 C 11.906 42.133 5 36.904 5 30 C 5 27.68 6.304 24.852 7.6 23 C 9.984 19.594 13.964 17.732 17 15 C 19.531 12.722 22.173 9.885 25 8 C 27.171 6.553 30.313 5 33 5 Z M 43 39 C 37.701 41.649 31.872 42.413 26 43 C 22.415 41.208 20.792 39.585 19 36 C 20.145 30.273 22.502 20.349 29 18.4 C 35.028 16.591 42.273 25.91 43.8 31 C 44.576 33.588 43.736 36.546 43 39 Z" fill="#003366" fill-rule="evenodd" />
    <rect x="5" y="5" width="53" height="53" fill="none" stroke="#ff00ff" stroke-width="1" stroke-dasharray="2 2" />
    <text x="5" y="3" font-size="4" fill="#ff00ff">anchor-0000:cubic_path:0.31</text>
  </g>
</svg>