<svg xmlns="http://www.w3.org/2000/svg" viewBox="0 0 64 64" width="64" height="64">
  <g id="anchor-0000" data-kind="cubic_path">
    <path d="M 28 15 C 30.385 17.981 32.455 21.172 35 24 C 36.728 22.617 38.506 21 41 21 C 44.416 21 54 33.654 54 37 C 54 40.583 40.506 50.852 37 49.8 C 33.377 48.713 31.009 43.87 29 41 C 23.246 41 14.762 44.608 10.4 39 C 7.203 34.889 9.864 29.873 11.8 26 C 14.285 21.03 16.508 12.102 24 13.6 C 25.31 13.862 26.708 14.612 28 15 Z" fill="#003366" />
    <rect x="8.912" y="13.434" width="45.088" height="36.403" fill="none" stroke="#ff00ff" stroke-width="1" stroke-dasharray="2 2" />
    <text x="8.912" y="11.434" font-size="4" fill="#ff00ff">anchor-0000:cubic_path:0.205</text>
  </g>
</svg>