<svg xmlns="http://www.w3.org/2000/svg" viewBox="0 0 64 64" width="64" height="64">
  <g id="anchor-0000" data-kind="cubic_path">
    <path d="M 22 13 C 24.333 12.667 27 14.333 29 16 C 31 17.667 31.833 22.167 34 23 C 36.167 23.833 39.667 20.333 42 21 C 44.333 21.667 46.167 24.833 48 27 C 49.833 29.167 52.333 31.667 53 34 C 53.667 36.333 53.333 39 52 41 C 50.667 43 47.5 44.5 45 46 C 42.5 47.5 39.333 50.333 37 50 C 34.667 49.667 33 45.5 31 44 C 29 42.5 27.167 41.333 25 41 C 22.833 40.667 20.333 42.167 18 42 C 15.667 41.833 12.5 41.5 11 40 C 9.5 38.5 8.833 35.5 9 33 C 9.167 30.5 11 27.5 12 25 C 13 22.5 13.333 20 15 18 C 16.667 16 19.667 13.333 22 13 Z" fill="#003366" />
    <rect x="9" y="13" width="44" height="37" fill="none" stroke="#ff00ff" stroke-width="1" stroke-dasharray="2 2" />
    <text x="9" y="11" font-size="4" fill="#ff00ff">anchor-0000:cubic_path:0.45</text>
  </g>
</svg>