<svg xmlns="http://www.w3.org/2000/svg" viewBox="0 0 64 64" width="64" height="64">
  <path d="M 52.8 40 C 51.582 41.566 49.595 42.683 48 43.8 C 44.454 46.282 39.734 52.482 35 48.8 C 32.198 46.621 30.992 41.399 27 41 C 24.994 40.799 22.978 41.802 21 42 C 14.817 42.618 8.255 40.452 9 33 C 9.325 29.746 11.378 26.844 12.8 24 C 15.103 19.394 17.202 12.24 24 13.6 C 30.288 14.858 30.222 20.921 34 22.6 C 37.377 24.101 39.818 18.947 44 22.2 C 45.566 23.418 46.683 25.405 47.8 27 C 50.282 30.546 56.482 35.266 52.8 40 Z" fill="#003366" />
</svg>