<svg xmlns="http://www.w3.org/2000/svg" viewBox="0 0 64 64" width="64" height="64">
  <path d="M 52.8 40 C 50.843 43.405 42.357 50.278 38 50 C 34.237 49.76 32.002 42.71 28 41.2 C 23.753 39.597 16.026 42.453 13 41.2 C 11.338 40.512 10.471 39.314 9.8 38 C 9.09 36.61 8.746 35.067 9 33 C 9.456 29.29 13.034 21.25 15.4 18 C 16.846 16.013 18.407 14.688 20 14 C 21.294 13.441 22.694 13.387 24 13.6 C 25.364 13.822 26.652 14.377 28 15.4 C 29.97 16.896 31.645 21.805 34 22.6 C 36.061 23.296 39.171 20.857 41 21 C 42.227 21.096 42.865 21.347 44 22.2 C 46.442 24.036 52.139 30.543 53.2 34 C 53.873 36.191 53.935 38.024 52.8 40 Z" fill="#003366" />
</svg>