<svg xmlns="http://www.w3.org/2000/svg" viewBox="0 0 64 64" width="64" height="64">
  <g id="anchor-0000" data-kind="cubic_path">
    <path d="M 35 16 C 36.832 18.29 38.556 21.089 41 22.8 C 43.797 24.758 47.4 25.172 49.6 28 C 50.921 29.699 51.202 31.995 50.6 34 C 50.515 34.284 42.387 47.129 41.8 47.8 C 41.033 48.677 39.95 49.335 39 50 C 33.782 49.478 30.989 45.399 27 45 C 24.654 44.765 22.226 45.555 20 46 C 18.428 44.9 16.687 43.774 15.8 42 C 14.851 40.102 15.195 37.982 14.6 36 C 13.196 31.32 11 28.032 11 23 C 12.497 21.653 14.01 19.997 16 19.4 C 18.317 18.705 20.648 19.235 23 19 C 27.504 18.55 29.548 16 35 16 Z" fill="#003366" />
    <rect x="11" y="16" width="39.902" height="34" fill="none" stroke="#ff00ff" stroke-width="1" stroke-dasharray="2 2" />
    <text x="11" y="14" font-size="4" fill="#ff00ff">anchor-0000:cubic_path:0.345</text>
  </g>
</svg>