<svg xmlns="http://www.w3.org/2000/svg" viewBox="0 0 64 64" width="64" height="64">
  <g id="anchor-0000" data-kind="cubic_path">
    <path d="M 30 16 C 32.333 15.833 35 16.667 37 18 C 39 19.333 40 22.5 42 24 C 44 25.5 47.5 25.5 49 27 C 50.5 28.5 51.5 30.833 51 33 C 50.5 35.167 47.333 37.667 46 40 C 44.667 42.333 44.5 45.333 43 47 C 41.5 48.667 39.167 50.167 37 50 C 34.833 49.833 32.333 46.833 30 46 C 27.667 45.167 25.167 45.333 23 45 C 20.833 44.667 18.333 45.333 17 44 C 15.667 42.667 15.833 39.333 15 37 C 14.167 34.667 12.667 32.167 12 30 C 11.333 27.833 10.167 25.833 11 24 C 11.833 22.167 15 19.833 17 19 C 19 18.167 20.833 19.5 23 19 C 25.167 18.5 27.667 16.167 30 16 Z" fill="#003366" />
    <rect x="11" y="16" width="40" height="34" fill="none" stroke="#ff00ff" stroke-width="1" stroke-dasharray="2 2" />
    <text x="11" y="14" font-size="4" fill="#ff00ff">anchor-0000:cubic_path:0.45</text>
  </g>
</svg>