<svg xmlns="http://www.w3.org/2000/svg" viewBox="0 0 64 64" width="64" height="64">
  <g id="anchor-0000" data-kind="cubic_path">
    <path d="M 39 49.6 C 38.055 49.877 37.193 49.906 36 49.6 C 33.919 49.066 30.76 45.836 28 45.2 C 25.415 44.604 22.062 46.21 20 45.6 C 18.465 45.146 17.5 44.519 16.4 43 C 14.196 39.955 10.829 29.911 11 26 C 11.092 23.888 12.03 22.323 13 21.2 C 13.796 20.279 14.668 19.834 16 19.4 C 18.141 18.703 22.12 19.188 25 18.6 C 27.779 18.033 29.99 15.527 33 16 C 37.697 16.738 47.165 24.735 49.6 28 C 50.708 29.485 50.953 30.756 51 32 C 51.041 33.065 50.775 33.714 50.2 35 C 48.922 37.856 44.056 45.566 41.8 47.8 C 40.748 48.842 39.995 49.308 39 49.6 Z" fill="#003366" />
    <rect x="11" y="16" width="40" height="33.6" fill="none" stroke="#ff00ff" stroke-width="1" stroke-dasharray="2 2" />
    <text x="11" y="14" font-size="4" fill="#ff00ff">anchor-0000:cubic_path:0.38</text>
  </g>
</svg>