<svg xmlns="http://www.w3.org/2000/svg" viewBox="0 0 64 64" width="64" height="64">
  <path d="M 39 49.6 C 35.124 50.763 32.112 47.156 29 45.6 C 25.921 44.061 23.086 46.217 20 45.6 C 14.409 44.482 15.69 37.78 13.8 34 C 11.915 30.231 9.088 24.677 13 21.2 C 13.876 20.421 14.865 19.74 16 19.4 C 18.317 18.705 20.648 19.235 23 19 C 26.758 18.624 30.075 15.023 34 16.2 C 37.121 17.136 38.423 20.996 41 22.8 C 44.063 24.944 48.365 25.329 50.2 29 C 50.999 30.598 51.108 32.308 50.6 34 C 50.515 34.284 42.387 47.129 41.8 47.8 C 41.037 48.672 40.113 49.266 39 49.6 Z" fill="#003366" />
</svg>