<svg xmlns="http://www.w3.org/2000/svg" viewBox="0 0 64 64" width="64" height="64">
  <g id="anchor-0000" data-kind="cubic_path">
    <path d="M 29 9 C 29 11.94 29 15.054 29 18 C 24.94 20.03 20.004 23.319 18.6 28 C 16.025 36.582 23.76 46.924 33 46 C 47.952 44.505 50.785 23.436 36 19 C 34.806 16.016 35 13.124 35 10 C 60.006 10 66.206 44.838 41 52.4 C 26.555 56.734 6 49.364 6 32 C 6 28.462 6.181 25.239 7.8 22 C 10.541 16.518 16.194 12.342 22 10.6 C 24.421 9.874 26.732 9.907 29 9 Z" fill="#003366" />
    <rect x="6" y="9" width="51.062" height="44.599" fill="none" stroke="#ff00ff" stroke-width="1" stroke-dasharray="2 2" />
    <text x="6" y="7" font-size="4" fill="#ff00ff">anchor-0000:cubic_path:0.1</text>
  </g>
</svg>