<svg xmlns="http://www.w3.org/2000/svg" viewBox="0 0 64 64" width="64" height="64">
  <g id="anchor-0000" data-kind="cubic_path">
    <path d="M 17 13 C 19.667 12.167 22.5 13.333 25 14 C 27.5 14.667 29.667 15.833 32 17 C 34.333 18.167 36.5 20 39 21 C 41.5 22 44.5 21.5 47 23 C 49.5 24.5 52.5 27.667 54 30 C 55.5 32.333 56 34.667 56 37 C 56 39.333 55.667 41.833 54 44 C 52.333 46.167 48.667 49.167 46 50 C 43.333 50.833 40.5 49.667 38 49 C 35.5 48.333 33.333 47.167 31 46 C 28.667 44.833 26.5 43 24 42 C 21.5 41 18.5 41.5 16 40 C 13.5 38.5 10.5 35.333 9 33 C 7.5 30.667 7 28.333 7 26 C 7 23.667 7.333 21.167 9 19 C 10.667 16.833 14.333 13.833 17 13 Z" fill="#003366" />
    <rect x="7" y="13" width="49" height="37" fill="none" stroke="#ff00ff" stroke-width="1" stroke-dasharray="2 2" />
    <text x="7" y="11" font-size="4" fill="#ff00ff">anchor-0000:cubic_path:0.45</text>
  </g>
</svg>