<svg xmlns="http://www.w3.org/2000/svg" viewBox="0 0 64 64" width="64" height="64">
  <g id="anchor-0000" data-kind="cubic_path">
    <path d="M 53 45 C 51.73 46.417 49.922 47.965 48 48.8 C 45.956 49.688 44.006 50.348 41 50 C 35.007 49.306 19.797 41.758 15 39 C 12.981 37.839 12.164 37.323 11 36 C 9.633 34.446 8.15 32.292 7.6 30 C 6.971 27.381 6.833 23.597 8 21 C 9.214 18.297 12.45 15.497 15 14.2 C 17.176 13.094 18.994 12.652 22 13 C 27.993 13.694 42.914 20.899 48 24 C 50.393 25.459 51.542 26.366 52.8 28 C 54.095 29.682 55.159 31.867 55.6 34 C 56.054 36.193 55.97 39.052 55.4 41 C 54.935 42.59 54.095 43.779 53 45 Z" fill="#003366" />
    <rect x="7.6" y="13" width="48" height="37" fill="none" stroke="#ff00ff" stroke-width="1" stroke-dasharray="2 2" />
    <text x="7.6" y="11" font-size="4" fill="#ff00ff">anchor-0000:cubic_path:0.345</text>
  </g>
</svg>