<svg xmlns="http://www.w3.org/2000/svg" viewBox="0 0 64 64" width="64" height="64">
  <g id="anchor-0000" data-kind="quad">
    <polygon points="8,16 56,16 56,48 8,48" fill="#003366" />
    <rect x="8" y="16" width="48" height="32" fill="none" stroke="#ff00ff" stroke-width="1" stroke-dasharray="2 2" />
    <text x="8" y="14" font-size="4" fill="#ff00ff">anchor-0000:quad:0.915065</text>
  </g>
  <g id="anchor-0001" data-kind="stroke_path">
    <path d="M 11 25.5 C 12.167 25.5 15.667 25.167 18 25.5 C 20.333 25.833 22.833 26.556 25 27.5 C 27.167 28.444 28.833 29.75 31 31.167 C 33.167 32.583 35.667 34.778 38 36 C 40.333 37.222 42.667 38.167 45 38.5 C 47.333 38.833 50.833 38.083 52 38" fill="none" stroke="#ffffff" stroke-width="2.351" stroke-linecap="round" stroke-linejoin="round" />
    <rect x="9.825" y="24.325" width="43.351" height="15.351" fill="none" stroke="#ff00ff" stroke-width="1" stroke-dasharray="2 2" />
    <text x="9.825" y="22.325" font-size="4" fill="#ff00ff">anchor-0001:stroke_path:0.963984</text>
  </g>
</svg>