<svg xmlns="http://www.w3.org/2000/svg" viewBox="0 0 64 64" width="64" height="64">
  <g id="anchor-0000" data-kind="cubic_path">
    <path d="M 42 56.8 C 36.265 58.521 30.686 53.543 26 51.2 C 22.56 49.48 18.037 48.762 15 46.4 C 10.88 43.196 5.47 25.295 6 20 C 6.174 18.261 8.92 12.945 10 12 C 11.829 10.4 20.384 9.262 23 9 C 28.976 8.402 34.707 6.484 40 10.6 C 43.003 12.935 44.134 16.852 47 19.4 C 50.139 22.19 54.221 24.042 56.2 28 C 57.048 29.695 58 32.073 58 34 C 58 38.875 52.155 48.2 49.2 52 C 47.517 54.164 44.604 56.019 42 56.8 Z M 43.4 40 C 33.402 48.57 9.45 37.95 17.2 24 C 24.156 11.48 49.739 19.306 46.8 34 C 46.353 36.233 45.157 38.494 43.4 40 Z" fill="#003366" fill-rule="evenodd" />
    <rect x="5.987" y="8.032" width="52.013" height="49.113" fill="none" stroke="#ff00ff" stroke-width="1" stroke-dasharray="2 2" />
    <text x="5.987" y="6.032" font-size="4" fill="#ff00ff">anchor-0000:cubic_path:0.275</text>
  </g>
</svg>